<svg xmlns="http://www.w3.org/2000/svg" width="39.768" height="41.861" viewBox="0 0 39.768 41.861">
  <g id="Icon_material-outline-add-home" data-name="Icon material-outline-add-home" transform="translate(-6 -4.5)">
    <path id="Path_6330" data-name="Path 6330" d="M22.744,9.733,35.3,19.151v2.093a14.459,14.459,0,0,1,4.186.607V17.058L22.744,4.5,6,17.058V42.175H22.074a14.074,14.074,0,0,1-1.256-4.186H10.186V19.151Z" transform="translate(0 0)" fill="#1c7e68"/>
    <path id="Path_6331" data-name="Path 6331" d="M29.965,19.5A10.465,10.465,0,1,0,40.43,29.965,10.469,10.469,0,0,0,29.965,19.5Zm6.279,11.512H31.012v5.233H28.919V31.012H23.686V28.919h5.233V23.686h2.093v5.233h5.233Z" transform="translate(5.337 5.93)" fill="#1c7e68"/>
  </g>
</svg>
