<svg xmlns="http://www.w3.org/2000/svg" width="77.623" height="60.16" viewBox="0 0 77.623 60.16">
  <g id="Icon_material-outline-add-home" data-name="Icon material-outline-add-home" transform="translate(6.175 -4.758)">
    <path id="Icon_material-round-groups" data-name="Icon material-round-groups" d="M38.146,40.355a49.289,49.289,0,0,1,19.7,4.181,13.863,13.863,0,0,1,8.175,12.681V60.1a4.659,4.659,0,0,1-4.645,4.645H14.92A4.659,4.659,0,0,1,10.275,60.1V57.263A13.766,13.766,0,0,1,18.45,44.582,48.5,48.5,0,0,1,38.146,40.355ZM38.146,9A13.935,13.935,0,1,1,24.21,22.935,13.917,13.917,0,0,1,38.146,9Z" transform="translate(-16.45 -4.242)" fill="#fff"/>
    <path id="Path_6331" data-name="Path 6331" d="M34.355,19.5A14.855,14.855,0,1,0,49.209,34.355,14.86,14.86,0,0,0,34.355,19.5Zm8.913,16.34H35.84v7.427H32.869V35.84H25.442V32.869h7.427V25.442H35.84v7.427h7.427Z" transform="translate(21.238 14.709)" fill="#fff" stroke="#1c7e68" stroke-width="2"/>
  </g>
</svg>
