<svg xmlns="http://www.w3.org/2000/svg" width="52.42" height="52.409" viewBox="0 0 52.42 52.409">
  <g id="Icon_ion-ios-pricetags" data-name="Icon ion-ios-pricetags" transform="translate(-2.25 -2.25)">
    <path id="Path_36396" data-name="Path 36396" d="M45.7,2.25H31.865a1.621,1.621,0,0,0-1.147.48L3.2,30.356a3.249,3.249,0,0,0,0,4.587L16.244,48.106a3.482,3.482,0,0,0,5.078.246L48.457,21.171a1.621,1.621,0,0,0,.48-1.147V5.491A3.241,3.241,0,0,0,45.7,2.25ZM40.325,14.829a3.6,3.6,0,1,1,3.194-3.194A3.6,3.6,0,0,1,40.325,14.829Z" transform="translate(0)" fill="#fff"/>
    <path id="Path_36397" data-name="Path 36397" d="M44.358,5.646v13.3a1.621,1.621,0,0,1-.48,1.147L13.549,50.426l1.03,1.03a3.249,3.249,0,0,0,4.587,0L46.686,23.818a1.621,1.621,0,0,0,.48-1.147V8.852a3.243,3.243,0,0,0-2.808-3.206Z" transform="translate(7.504 2.255)" fill="#fff"/>
  </g>
</svg>
