<svg xmlns="http://www.w3.org/2000/svg" width="48.982" height="35.623" viewBox="0 0 48.982 35.623">
  <g id="Group_8215" data-name="Group 8215" transform="translate(-1.331 -1.332)">
    <path id="Icon_material-outline-payments" data-name="Icon material-outline-payments" d="M41.576,28.264V10.453A4.466,4.466,0,0,0,37.123,6H5.953A4.466,4.466,0,0,0,1.5,10.453V28.264a4.466,4.466,0,0,0,4.453,4.453h31.17A4.466,4.466,0,0,0,41.576,28.264Zm-4.453,0H5.953V10.453h31.17ZM21.538,12.679a6.679,6.679,0,1,0,6.679,6.679A6.67,6.67,0,0,0,21.538,12.679Zm28.944,0V37.17a4.466,4.466,0,0,1-4.453,4.453H8.179V37.17H46.029V12.679Z" transform="translate(-0.169 -4.668)" fill="#fff"/>
  </g>
</svg>
