<svg xmlns="http://www.w3.org/2000/svg" width="59.275" height="53.887" viewBox="0 0 59.275 53.887">
  <g id="Icon_material-sharp-add-home-work" data-name="Icon material-sharp-add-home-work" transform="translate(-1.5 -4.5)">
    <path id="Path_6271" data-name="Path 6271" d="M39.221,27.887V26.055L20.36,12.583,1.5,26.055V53H14.972V36.832H25.749V53h4.526a18.816,18.816,0,0,1,8.945-25.111ZM60.775,31.74V4.5H25.749V9.808L44.609,23.28V26.27a17.874,17.874,0,0,1,2.694-.216A18.778,18.778,0,0,1,60.775,31.74ZM44.609,15.277H50v5.389H44.609Z" fill="#fff"/>
    <path id="Path_6272" data-name="Path 6272" d="M46.443,32.972A13.472,13.472,0,1,0,32.972,46.443,13.477,13.477,0,0,0,46.443,32.972ZM31.625,41.055V34.319H24.889V31.625h6.736V24.889h2.694v6.736h6.736v2.694H34.319v6.736Z" transform="translate(14.332 11.943)" fill="#fff"/>
  </g>
</svg>
