<svg xmlns="http://www.w3.org/2000/svg" width="61.344" height="57.169" viewBox="0 0 61.344 57.169">
  <g id="Icon_ion-person-add-outline" data-name="Icon ion-person-add-outline" transform="translate(-0.75 -1.875)">
    <path id="Path_6327" data-name="Path 6327" d="M37,15.876c-.51,6.884-5.729,12.5-11.459,12.5s-10.957-5.615-11.459-12.5c-.521-7.162,4.557-12.5,11.459-12.5A11.293,11.293,0,0,1,37,15.876Z" transform="translate(10.047 0)" fill="none" stroke="#fff" stroke-linecap="round" stroke-linejoin="round" stroke-width="3"/>
    <path id="Path_6328" data-name="Path 6328" d="M31.752,21.375c-11.329,0-22.826,6.25-24.954,18.048a2.186,2.186,0,0,0,2.038,2.787H54.669a2.187,2.187,0,0,0,2.038-2.787C54.578,27.625,43.08,21.375,31.752,21.375Z" transform="translate(3.833 15.335)" fill="none" stroke="#fff" stroke-miterlimit="10" stroke-width="3"/>
    <path id="Path_6329" data-name="Path 6329" d="M9.542,12.375V26.959m7.292-7.292H2.25" transform="translate(0 7.667)" fill="none" stroke="#fff" stroke-linecap="round" stroke-linejoin="round" stroke-width="3"/>
  </g>
</svg>
