<svg xmlns="http://www.w3.org/2000/svg" width="34.399" height="31.822" viewBox="0 0 34.399 31.822">
  <g id="Icon_akar-chat-dots" data-name="Icon akar-chat-dots" transform="translate(-1.75 -3.25)">
    <path id="Path_35848" data-name="Path 35848" d="M22.14,30.019c6.015,0,9.023,0,10.89-1.869S34.9,23.274,34.9,17.26s0-9.023-1.869-10.89S28.154,4.5,22.14,4.5H15.76c-6.015,0-9.023,0-10.89,1.869S3,11.245,3,17.26s0,9.023,1.869,10.89c1.042,1.043,2.437,1.5,4.511,1.707" transform="translate(0)" fill="none" stroke="#0d907c" stroke-linecap="round" stroke-linejoin="round" stroke-width="2.5"/>
    <path id="Path_35849" data-name="Path 35849" d="M18.541,16.5v.016m-6.38-.016v.016M24.92,16.5v.016M21.73,29.26A14.029,14.029,0,0,0,15.6,31.086c-3.187,1.654-4.78,2.482-5.565,1.954S9.4,30.879,9.7,27.61l.067-.743" transform="translate(0.409 0.76)" fill="none" stroke="#0d907c" stroke-linecap="round" stroke-width="2.5"/>
  </g>
</svg>
