<svg xmlns="http://www.w3.org/2000/svg" width="40.621" height="30.466" viewBox="0 0 40.621 30.466">
  <path id="Icon_material-outline-contact-phone" data-name="Icon material-outline-contact-phone" d="M37.236,4.5H3.385A3.4,3.4,0,0,0,0,7.885v23.7a3.4,3.4,0,0,0,3.385,3.385H37.236A3.381,3.381,0,0,0,40.6,31.581l.017-23.7A3.4,3.4,0,0,0,37.236,4.5Zm0,27.081H3.385V7.885H37.236Zm-5.061-1.709L35.543,26.5l-2.556-3.385H30.212a9.968,9.968,0,0,1,0-6.77h2.776l2.556-3.385L32.175,9.595a12.65,12.65,0,0,0-4.621,6.753,12.327,12.327,0,0,0,0,6.77,12.714,12.714,0,0,0,4.621,6.753ZM15.233,19.733a5.078,5.078,0,1,0-5.078-5.078A5.093,5.093,0,0,0,15.233,19.733Zm0-6.77a1.693,1.693,0,1,1-1.693,1.693A1.7,1.7,0,0,1,15.233,12.963ZM25.388,27.5c0-4.231-6.719-6.059-10.155-6.059S5.078,23.27,5.078,27.5v2.386H25.388Zm-16.113-1a12.039,12.039,0,0,1,5.958-1.693A11.918,11.918,0,0,1,21.191,26.5Z" transform="translate(0 -4.5)" fill="#038d7d"/>
</svg>
