<svg xmlns="http://www.w3.org/2000/svg" width="26.992" height="26.992" viewBox="0 0 26.992 26.992">
  <g id="Icon_akar-edit" data-name="Icon akar-edit" transform="translate(-4.5 -2.752)">
    <path id="Path_7146" data-name="Path 7146" d="M24.146,7.863,27.1,10.82M26.048,5.258l-8,8a2.958,2.958,0,0,0-.81,1.511l-.739,3.7,3.7-.74a2.955,2.955,0,0,0,1.511-.809l8-8a2.589,2.589,0,0,0-3.661-3.661Z" transform="translate(-0.723)" fill="none" stroke="#1c7e68" stroke-linecap="round" stroke-linejoin="round" stroke-width="3"/>
    <path id="Path_7147" data-name="Path 7147" d="M26.951,21.467v4.19a2.793,2.793,0,0,1-2.793,2.793H8.793A2.793,2.793,0,0,1,6,25.658V10.293A2.793,2.793,0,0,1,8.793,7.5h4.19" transform="translate(0 -0.207)" fill="none" stroke="#1c7e68" stroke-linecap="round" stroke-linejoin="round" stroke-width="3"/>
  </g>
</svg>
