<svg xmlns="http://www.w3.org/2000/svg" width="43.63" height="32.645" viewBox="0 0 43.63 32.645">
  <g id="Icon_akar-eye" data-name="Icon akar-eye" transform="translate(-1.426 -5.5)">
    <path id="Path_36384" data-name="Path 36384" d="M42.19,19.7a3.464,3.464,0,0,1,0,4.248c-3.055,3.988-10.384,12.2-18.94,12.2s-15.886-8.211-18.94-12.2a3.462,3.462,0,0,1,0-4.248C7.364,15.711,14.693,7.5,23.249,7.5S39.135,15.711,42.19,19.7Z" transform="translate(0 0)" fill="none" stroke="#1c7e68" stroke-linecap="round" stroke-linejoin="round" stroke-width="4"/>
    <path id="Path_36385" data-name="Path 36385" d="M25.776,19.638A6.138,6.138,0,1,1,19.638,13.5,6.138,6.138,0,0,1,25.776,19.638Z" transform="translate(3.611 2.184)" fill="none" stroke="#1c7e68" stroke-linecap="round" stroke-linejoin="round" stroke-width="4"/>
  </g>
</svg>
