<svg xmlns="http://www.w3.org/2000/svg" width="56.447" height="59.418" viewBox="0 0 56.447 59.418">
  <g id="Icon_material-outline-add-home" data-name="Icon material-outline-add-home" transform="translate(-6 -4.5)">
    <path id="Path_6330" data-name="Path 6330" d="M29.767,11.927,47.593,25.3v2.971a20.524,20.524,0,0,1,5.942.862v-6.8L29.767,4.5,6,22.325V57.976H28.817a19.977,19.977,0,0,1-1.783-5.942H11.942V25.3Z" transform="translate(0 0)" fill="#fff"/>
    <path id="Path_6331" data-name="Path 6331" d="M34.355,19.5A14.855,14.855,0,1,0,49.209,34.355,14.86,14.86,0,0,0,34.355,19.5Zm8.913,16.34H35.84v7.427H32.869V35.84H25.442V32.869h7.427V25.442H35.84v7.427h7.427Z" transform="translate(13.238 14.709)" fill="#fff"/>
  </g>
</svg>
