<svg xmlns="http://www.w3.org/2000/svg" width="41.346" height="41.346" viewBox="0 0 41.346 41.346">
  <path id="Icon_material-outline-language" data-name="Icon material-outline-language" d="M23.652,3A20.673,20.673,0,1,0,44.346,23.673,20.663,20.663,0,0,0,23.652,3ZM37.979,15.4h-6.1a32.353,32.353,0,0,0-2.853-7.36,16.6,16.6,0,0,1,8.951,7.36ZM23.673,7.217A29.122,29.122,0,0,1,27.622,15.4h-7.9A29.122,29.122,0,0,1,23.673,7.217Zm-16,20.59a16.171,16.171,0,0,1,0-8.269H14.66a34.142,34.142,0,0,0-.289,4.135,34.142,34.142,0,0,0,.289,4.135Zm1.7,4.135h6.1a32.352,32.352,0,0,0,2.853,7.36,16.512,16.512,0,0,1-8.951-7.36Zm6.1-16.538h-6.1a16.512,16.512,0,0,1,8.951-7.36,32.353,32.353,0,0,0-2.853,7.36Zm8.207,24.725a29.122,29.122,0,0,1-3.949-8.187h7.9A29.122,29.122,0,0,1,23.673,40.129Zm4.838-12.321H18.836a30.416,30.416,0,0,1-.331-4.135,30.152,30.152,0,0,1,.331-4.135h9.675a30.151,30.151,0,0,1,.331,4.135A30.416,30.416,0,0,1,28.511,27.808ZM29.027,39.3a32.352,32.352,0,0,0,2.853-7.36h6.1a16.6,16.6,0,0,1-8.951,7.36Zm3.659-11.494a34.143,34.143,0,0,0,.289-4.135,34.143,34.143,0,0,0-.289-4.135h6.987a16.171,16.171,0,0,1,0,8.269Z" transform="translate(-3 -3)" fill="#038d7d"/>
</svg>
