<svg xmlns="http://www.w3.org/2000/svg" width="33.75" height="33.188" viewBox="0 0 33.75 33.188">
  <path id="Icon_core-list-rich" data-name="Icon core-list-rich" d="M26.438,1.688h8.438v8.438H26.438Zm2.25,6.188h3.938V3.938H28.688Zm-2.25,6.188h8.438V22.5H26.438Zm2.25,6.188h3.938V16.313H28.688Zm-2.25,6.188h8.438v8.438H26.438Zm2.25,6.188h3.938V28.688H28.688ZM23.625,1.687H1.125v2.25h22.5Zm0,6.188h-18v2.25h18Zm0,6.188H1.125v2.25h22.5Zm0,6.188h-18V22.5h18Zm0,12.375h-18v2.25h18Zm0-6.188H1.125v2.25h22.5Z" transform="translate(-1.125 -1.687)" fill="#038d7d"/>
</svg>
