<svg xmlns="http://www.w3.org/2000/svg" width="36.075" height="37.165" viewBox="0 0 36.075 37.165">
  <path id="Icon_corebrands-minetest" data-name="Icon corebrands-minetest" d="M35.538,18.656l-4.078,2.391v.838l-1.629,1v1.664l-1.629,1v4.283l7.336-4.306Zm-.814,1.435v4.951l-5.707,3.351V26.014l1.629-1V23.355l1.629-1v-.826ZM29.069,8.315,27.376,9.5v7.113l.2.123,1.506.867,1.547-.908V9.228Zm.035.978.714.416v6.509l-.738.427-.9-.515V9.937ZM9.322,0,2.964,3.738v6.809l.2.117,4.365,2.561v3.311l.2.117,1.594.955,1.793-1.072V13.224l3.99-2.35V3.491ZM9.316.966l4.975,3V10.4L9.322,13.319,3.779,10.061V4.219ZM10.3,13.7v2.35l-.979.586-.979-.586V13.7l.979.574Zm13.418,3.112L11.9,23.625v2.15l1.3.75v1.658l4.816,2.824L28.2,24.855V23.1l1.629-1V20.379Zm0,.955,5.3,3.088v.774l-1.629,1v1.746l-9.375,5.66L14.021,27.7V26.04l-1.306-.75V24.112ZM19.248,4.224a.408.408,0,0,0-.217.059L15.1,6.6v.961L19.235,5.12l5.3,3.1-6.48,3.8a.416.416,0,0,0,0,.714L22.9,15.619,12.31,21.725,1.71,15.461l4.8-2.836-.814-.48L.691,15.1a.422.422,0,0,0,0,.721l11.414,6.744a.4.4,0,0,0,.4,0l11.409-6.575a.417.417,0,0,0,.006-.721l-4.852-2.883,6.48-3.8a.422.422,0,0,0,0-.721L19.44,4.274a.46.46,0,0,0-.2-.053Zm6.51,4a.416.416,0,0,1-.2.358l-.61.358v.7L19.669,12.74l.815.48,5.068-2.971a.422.422,0,0,0,.2-.363ZM4.564,20.484v1.647l-1.629-1V27.1l9.615,5.731V30.206l-1.383-.833V27.7l-1.711-1V23.381Zm.814,1.442,3.264,1.928v3.334l1.711,1v1.664l1.383.833v.7L3.75,26.626v-4.02l1.629,1ZM17.819,4.993l-2.712,1.6V6.6L17.826,5ZM5.683,12.141.462,15.223V25.688L17.982,36,35.507,25.436V15.388l-4.875-2.865v.961l4.06,2.385v9.093L17.982,35.034,1.277,25.208v-9.04l-.586-.345a.422.422,0,0,1,0-.721L5.7,12.148ZM35.538,18.65l-.61.363L31.46,21.046v.838l-1.629,1v1.664l-1.629,1v4.283l7.336-4.306Zm-.814,1.441v4.951l-5.707,3.351V26.014l1.629-1V23.355l1.629-1v-.826ZM29.069,8.315,27.37,9.5v7.113l.212.123,1.506.867,1.547-.908V9.228Zm.035.978.714.416v6.509l-.738.427-.9-.515V9.937ZM9.322,0,2.964,3.738v6.809l.2.117,4.359,2.561v3.311l.2.117,1.594.955,1.793-1.072V13.224l4-2.35V3.491Zm0,.966,4.969,3V10.4L9.322,13.319,3.779,10.061V4.219ZM10.3,13.7v2.35l-.979.586-.979-.586V13.7l.979.574Zm13.418,3.112L11.9,23.625v2.15l1.306.75v1.658l4.811,2.824L28.2,24.855V23.1l1.629-1V20.379Zm0,.955,5.3,3.088v.774l-1.629,1v1.746l-9.375,5.66L14.021,27.7V26.04l-1.306-.75V24.112ZM19.248,4.224a.408.408,0,0,0-.217.059L15.111,6.6v.961L19.236,5.12l5.3,3.1-6.48,3.8a.416.416,0,0,0,0,.714L22.9,15.619l-10.587,6.1-10.6-6.258,4.8-2.836-.814-.48L.7,15.1a.417.417,0,0,0,0,.721l11.409,6.739a.384.384,0,0,0,.4,0l11.409-6.569a.421.421,0,0,0,.006-.727l-4.852-2.883,6.48-3.8a.417.417,0,0,0,0-.721L19.441,4.281a.466.466,0,0,0-.2-.058Zm6.51,4a.416.416,0,0,1-.2.358l-.61.358v.7L19.669,12.74l.815.48,5.068-2.971a.422.422,0,0,0,.2-.363Zm0,1.452v.2a.4.4,0,0,1-.2.358l-.234.141,2.056,1.2v-.961Zm4.88,2.847v.955l4.084,2.385v.774l-2.977,1.788L29.1,19.976l-4.975-2.924V15.627a.408.408,0,0,0-.2-.358l-3.439-2.045-.815.475,3.645,2.168v1.424a.418.418,0,0,0,.2.363L28.9,20.818a.411.411,0,0,0,.4,0l2.853-1.664h.006l2.561-1.547V19a.666.666,0,0,0,.018.082c.006.011.011.029.018.041a.285.285,0,0,1,.018.041l.024.035a.55.55,0,0,0,.117.111l.035.024.035.018a.1.1,0,0,0,.041.006.418.418,0,0,0,.241-.006l.035-.018.076-.041c.006-.011.018-.018.029-.029s.018-.024.029-.029l.029-.029.018-.035a.21.21,0,0,0,.035-.076c.006-.011.006-.029.011-.041l.006-.041V15.64a.411.411,0,0,0-.2-.363ZM4.564,20.484v1.647l-1.629-1V27.1l9.621,5.731V30.206l-1.388-.833V27.7l-1.711-1V23.381Zm.82,1.442,3.258,1.928v3.334l1.711,1v1.664l1.383.833v.7L3.75,26.626v-4.02l1.635,1ZM17.819,4.993l-2.712,1.6V6.6L17.826,5ZM5.689,12.141.462,15.223V25.688L17.988,36l17.52-10.565V15.388l-4.875-2.865v.961l4.06,2.385v9.093L17.982,35.034,1.277,25.208v-9.04L.7,15.822a.417.417,0,0,1,0-.721l5-2.947Z" transform="translate(0.038 0.582)" fill="#038d7d" stroke="#038d7d" stroke-width="1"/>
</svg>
