<svg id="Group_7894" data-name="Group 7894" xmlns="http://www.w3.org/2000/svg" width="33.165" height="44.612" viewBox="0 0 33.165 44.612">
  <g id="Group_7666" data-name="Group 7666" transform="translate(0 0)">
    <g id="Icon_core-location-pin" data-name="Icon core-location-pin" transform="translate(0 0)">
      <path id="Path_7244" data-name="Path 7244" d="M33.933,6.092A16.583,16.583,0,0,0,8.314,26.869l11.528,17.7a2.824,2.824,0,0,0,4.732,0L36.1,26.869A16.583,16.583,0,0,0,33.933,6.092Z" transform="translate(-5.626 -1.237)" fill="#1c7e68"/>
    </g>
  </g>
  <g id="Group_7672" data-name="Group 7672" transform="translate(2.906 2.906)">
    <g id="Icon_core-location-pin-2" data-name="Icon core-location-pin" transform="translate(0 0)">
      <path id="Path_7244-2" data-name="Path 7244" d="M28.864,5.339a13.33,13.33,0,0,0-18.2-.974A14.291,14.291,0,0,0,7.832,22.893L17.3,37.845a2.283,2.283,0,0,0,3.885,0l9.464-14.952A14.318,14.318,0,0,0,28.864,5.339Z" transform="translate(-5.626 -1.237)" fill="none" stroke="#fff" stroke-width="2"/>
    </g>
  </g>
  <path id="Icon_material-round-groups" data-name="Icon material-round-groups" d="M18.963,18.774a15.365,15.365,0,0,1,6.14,1.3,4.322,4.322,0,0,1,2.549,3.953v.9A1.452,1.452,0,0,1,26.2,26.376H11.723a1.452,1.452,0,0,1-1.448-1.448v-.883a4.291,4.291,0,0,1,2.549-3.953A15.118,15.118,0,0,1,18.963,18.774Zm0-9.774a4.344,4.344,0,1,1-4.344,4.344A4.338,4.338,0,0,1,18.963,9Z" transform="translate(-2.235 -2.781)" fill="#fff"/>
</svg>
