<svg xmlns="http://www.w3.org/2000/svg" width="32.889" height="32.889" viewBox="0 0 32.889 32.889">
  <path id="Icon_fa-solid-paint-roller" data-name="Icon fa-solid-paint-roller" d="M0,4.111A4.115,4.115,0,0,1,4.111,0h18.5a4.115,4.115,0,0,1,4.111,4.111V8.222a4.115,4.115,0,0,1-4.111,4.111H4.111A4.115,4.115,0,0,1,0,8.222Zm10.278,18.5a2.053,2.053,0,0,1,2.056-2.056V19.528a5.137,5.137,0,0,1,5.139-5.139h9.25a2.053,2.053,0,0,0,2.056-2.056V4.464a6.166,6.166,0,0,1,4.111,5.813v2.056A6.168,6.168,0,0,1,26.722,18.5h-9.25a1.031,1.031,0,0,0-1.028,1.028v1.028A2.053,2.053,0,0,1,18.5,22.611v8.222a2.053,2.053,0,0,1-2.056,2.056H12.333a2.053,2.053,0,0,1-2.056-2.056Z" fill="#038d7d"/>
</svg>
