<svg xmlns="http://www.w3.org/2000/svg" width="34.679" height="34.104" viewBox="0 0 34.679 34.104">
  <g id="Icon_akar-leaf" data-name="Icon akar-leaf" transform="translate(457.451 -23.507)">
    <path id="Icon_material-outline-notification-add" data-name="Icon material-outline-notification-add" d="M26.807,23.462v5.116H12.936V16.641a6.947,6.947,0,0,1,10.889-5.593L26.3,8.61a10.248,10.248,0,0,0-3.832-1.859V5.558a2.6,2.6,0,0,0-5.2,0V6.751a10.242,10.242,0,0,0-7.8,9.89V28.578H6v3.41H33.743v-3.41H30.275V23.462ZM19.871,37.1a3.45,3.45,0,0,0,3.468-3.41H16.4A3.45,3.45,0,0,0,19.871,37.1ZM40.679,13.231h-5.2V8.116H32.009v5.116h-5.2v3.41h5.2v5.116h3.468V16.641h5.2Z" transform="translate(-463.451 20.507)" fill="#038d7d"/>
  </g>
</svg>
