<svg xmlns="http://www.w3.org/2000/svg" width="29.632" height="34.5" viewBox="0 0 29.632 34.5">
  <path id="Icon_ion-notifications-outline" data-name="Icon ion-notifications-outline" d="M32.58,26.9c-1.991-2.437-3.4-3.677-3.4-10.394,0-6.152-3.141-8.343-5.727-9.408a1.381,1.381,0,0,1-.771-.818,3.758,3.758,0,0,0-3.415-2.9,3.75,3.75,0,0,0-3.411,2.9,1.368,1.368,0,0,1-.771.816C12.5,8.162,9.361,10.346,9.361,16.5c0,6.717-1.409,7.958-3.4,10.394A1.563,1.563,0,0,0,7.3,29.423H31.247A1.564,1.564,0,0,0,32.58,26.9Zm-8.348,2.525v1.24a4.962,4.962,0,0,1-9.923,0v-1.24" transform="translate(-4.454 -2.25)" fill="none" stroke="#028d7d" stroke-linecap="round" stroke-linejoin="round" stroke-width="2.25"/>
</svg>
