<svg xmlns="http://www.w3.org/2000/svg" width="21.877" height="29.17" viewBox="0 0 21.877 29.17">
  <path id="Icon_fa-regular-hourglass-half" data-name="Icon fa-regular-hourglass-half" d="M0,1.367A1.364,1.364,0,0,1,1.367,0H20.51a1.367,1.367,0,1,1,0,2.735h-.456V3.817a8.663,8.663,0,0,1-2.535,6.125L12.87,14.585l4.643,4.643a8.645,8.645,0,0,1,2.541,6.125v1.082h.456a1.367,1.367,0,1,1,0,2.735H1.367a1.367,1.367,0,0,1,0-2.735h.456V25.353a8.663,8.663,0,0,1,2.535-6.125l4.649-4.643L4.358,9.942A8.663,8.663,0,0,1,1.823,3.817V2.735H1.367A1.364,1.364,0,0,1,0,1.367Zm6.3,19.8a6.009,6.009,0,0,0-.61.712H16.192a6.009,6.009,0,0,0-.61-.712l-4.643-4.649L6.3,21.16Zm9.9-13.873A5.916,5.916,0,0,0,17.32,3.817V2.735H4.558V3.817A5.9,5.9,0,0,0,5.686,7.292Z" fill="#038d7d"/>
</svg>
