<svg xmlns="http://www.w3.org/2000/svg" width="18.758" height="18.791" viewBox="0 0 18.758 18.791">
  <path id="Icon_feather-phone-call" data-name="Icon feather-phone-call" d="M13.808,4.79a4.112,4.112,0,0,1,3.248,3.248M13.808,1.5a7.4,7.4,0,0,1,6.538,6.53m-.822,6.563V17.06A1.645,1.645,0,0,1,17.731,18.7a16.275,16.275,0,0,1-7.1-2.525A16.037,16.037,0,0,1,5.7,11.245a16.275,16.275,0,0,1-2.525-7.13A1.645,1.645,0,0,1,4.811,2.322H7.278A1.645,1.645,0,0,1,8.923,3.737,10.559,10.559,0,0,0,9.5,6.048a1.645,1.645,0,0,1-.37,1.735L8.084,8.827a13.158,13.158,0,0,0,4.934,4.934l1.044-1.044a1.645,1.645,0,0,1,1.735-.37,10.559,10.559,0,0,0,2.311.576A1.645,1.645,0,0,1,19.524,14.592Z" transform="translate(-2.417 -0.672)" fill="none" stroke="#013b41" stroke-linecap="round" stroke-linejoin="round" stroke-width="1.5"/>
</svg>
