<svg xmlns="http://www.w3.org/2000/svg" width="43.793" height="41.289" viewBox="0 0 43.793 41.289">
  <g id="Icon_ion-pricetags-outline" data-name="Icon ion-pricetags-outline" transform="translate(0.215 -1.125)">
    <path id="Path_36393" data-name="Path 36393" d="M34.47,2.25H23.886a1.245,1.245,0,0,0-.878.362L1.848,23.766a2.484,2.484,0,0,0,0,3.5L11.922,37.344a2.485,2.485,0,0,0,3.505,0L36.581,16.2a1.245,1.245,0,0,0,.362-.878V4.73A2.468,2.468,0,0,0,34.47,2.25Z" transform="translate(0 0)" fill="none" stroke="#038d7d" stroke-linecap="round" stroke-linejoin="round" stroke-width="2.25"/>
    <path id="Path_36394" data-name="Path 36394" d="M25.255,11.135A2.755,2.755,0,1,1,28.01,8.38,2.755,2.755,0,0,1,25.255,11.135Z" transform="translate(4.799 0.758)" fill="#038d7d"/>
    <path id="Path_36395" data-name="Path 36395" d="M16.172,40.065,38.73,17.507a1.189,1.189,0,0,0,.344-.861V5.625" transform="translate(3.378 0.758)" fill="none" stroke="#038d7d" stroke-linecap="round" stroke-linejoin="round" stroke-width="2.25"/>
  </g>
</svg>
