<svg xmlns="http://www.w3.org/2000/svg" width="36.586" height="28.456" viewBox="0 0 36.586 28.456">
  <path id="Icon_fa-regular-rectangle-list" data-name="Icon fa-regular-rectangle-list" d="M32.521,5.3a1.019,1.019,0,0,1,1.016,1.016V26.641a1.019,1.019,0,0,1-1.016,1.016H4.065a1.019,1.019,0,0,1-1.016-1.016V6.315A1.019,1.019,0,0,1,4.065,5.3Zm4.065,1.016A4.069,4.069,0,0,0,32.521,2.25H4.065A4.069,4.069,0,0,0,0,6.315V26.641a4.069,4.069,0,0,0,4.065,4.065H32.521a4.069,4.069,0,0,0,4.065-4.065Zm-6.1,4.065a2.033,2.033,0,1,0-2.033,2.033A2.033,2.033,0,0,0,30.488,10.38Zm-6.606,0a1.521,1.521,0,0,0-1.524-1.524H8.13a1.524,1.524,0,1,0,0,3.049H22.358A1.521,1.521,0,0,0,23.883,10.38Zm0,6.1a1.521,1.521,0,0,0-1.524-1.524H8.13A1.524,1.524,0,0,0,8.13,18H22.358A1.521,1.521,0,0,0,23.883,16.478Zm0,6.1a1.521,1.521,0,0,0-1.524-1.524H8.13a1.524,1.524,0,0,0,0,3.049H22.358A1.521,1.521,0,0,0,23.883,22.576Zm4.573-4.065a2.033,2.033,0,1,0-2.033-2.033A2.033,2.033,0,0,0,28.456,18.511Zm2.033,4.065a2.033,2.033,0,1,0-2.033,2.033A2.033,2.033,0,0,0,30.488,22.576Z" transform="translate(0 -2.25)" fill="#038d7d"/>
</svg>
