<svg xmlns="http://www.w3.org/2000/svg" width="29" height="29" viewBox="0 0 29 29">
  <g id="Icon_akar-settings-horizontal" data-name="Icon akar-settings-horizontal" transform="translate(-3.5 -3.5)">
    <path id="Path_7245" data-name="Path 7245" d="M4.5,7.5h6m21,0h-15M4.5,18h18m9,0h-3M4.5,28.5h3m24,0h-18" fill="none" stroke="#013b41" stroke-linecap="round" stroke-width="2"/>
    <path id="Path_7246" data-name="Path 7246" d="M16.5,7.5a3,3,0,1,1-3-3,3,3,0,0,1,3,3Z" fill="none" stroke="#013b41" stroke-linecap="round" stroke-width="2"/>
    <path id="Path_7247" data-name="Path 7247" d="M28.5,18a3,3,0,1,1-3-3A3,3,0,0,1,28.5,18Z" fill="none" stroke="#013b41" stroke-linecap="round" stroke-width="2"/>
    <path id="Path_7248" data-name="Path 7248" d="M13.5,28.5a3,3,0,1,1-3-3A3,3,0,0,1,13.5,28.5Z" fill="none" stroke="#013b41" stroke-linecap="round" stroke-width="2"/>
  </g>
</svg>
