<svg xmlns="http://www.w3.org/2000/svg" width="35.057" height="31.551" viewBox="0 0 35.057 31.551">
  <path id="Icon_material-outline-person-search" data-name="Icon material-outline-person-search" d="M17.023,20.023a7.011,7.011,0,1,0-7.011-7.011A7.009,7.009,0,0,0,17.023,20.023Zm0-10.517a3.506,3.506,0,1,1-3.506,3.506A3.516,3.516,0,0,1,17.023,9.506ZM6.506,30.54c.386-1.262,5.8-3.506,10.517-3.506a10.421,10.421,0,0,1,.613-3.488C12.851,23.371,3,25.754,3,30.54v3.506H19.722a10.3,10.3,0,0,1-2.086-3.506Zm27.046.035a6.773,6.773,0,0,0,1-3.541,7.011,7.011,0,1,0-7.011,7.011,6.939,6.939,0,0,0,3.541-1l4.5,4.5,2.471-2.471C35.427,32.45,36.672,33.677,33.552,30.575ZM27.54,30.54a3.506,3.506,0,1,1,3.506-3.506A3.516,3.516,0,0,1,27.54,30.54Z" transform="translate(-3 -6)" fill="#038d7d"/>
</svg>
