<svg xmlns="http://www.w3.org/2000/svg" width="22.663" height="14.422" viewBox="0 0 22.663 14.422">
  <path id="Icon_material-group" data-name="Icon material-group" d="M16.952,13.681a3.09,3.09,0,1,0-3.09-3.09A3.078,3.078,0,0,0,16.952,13.681Zm-8.241,0a3.09,3.09,0,1,0-3.09-3.09A3.078,3.078,0,0,0,8.711,13.681Zm0,2.06c-2.4,0-7.211,1.205-7.211,3.606v2.575H15.922V19.347C15.922,16.946,11.111,15.741,8.711,15.741Zm8.241,0c-.3,0-.639.021-1,.052a4.347,4.347,0,0,1,2.029,3.554v2.575h6.181V19.347C24.163,16.946,19.352,15.741,16.952,15.741Z" transform="translate(-1.5 -7.5)" fill="#013b41"/>
</svg>
