<svg xmlns="http://www.w3.org/2000/svg" width="28.774" height="28.913" viewBox="0 0 28.774 28.913">
  <path id="Icon_akar-whatsapp-fill" data-name="Icon akar-whatsapp-fill" d="M20.98,17.326c-.359-.179-2.119-1.044-2.447-1.165s-.566-.178-.806.181-.924,1.164-1.132,1.4-.418.269-.776.09a9.828,9.828,0,0,1-2.879-1.777,10.776,10.776,0,0,1-1.991-2.48c-.208-.358-.023-.552.157-.73.161-.16.358-.418.537-.626a2.427,2.427,0,0,0,.358-.6A.653.653,0,0,0,11.97,11c-.089-.179-.8-1.942-1.1-2.659-.29-.7-.585-.6-.8-.614s-.448-.012-.687-.012a1.312,1.312,0,0,0-.954.448,4.01,4.01,0,0,0-1.253,2.986,6.966,6.966,0,0,0,1.461,3.7,15.961,15.961,0,0,0,6.115,5.405,20.454,20.454,0,0,0,2.041.753,4.888,4.888,0,0,0,2.255.142,3.69,3.69,0,0,0,2.417-1.7,3,3,0,0,0,.208-1.7c-.089-.149-.328-.239-.687-.418Zm-6.532,8.918h0a11.892,11.892,0,0,1-6.064-1.661l-.432-.257L3.439,25.509l1.2-4.395-.283-.451a11.908,11.908,0,1,1,10.088,5.58ZM24.582,4.2A14.33,14.33,0,0,0,2.032,21.488L0,28.912,7.594,26.92a14.313,14.313,0,0,0,6.847,1.744h.006A14.333,14.333,0,0,0,24.582,4.2" transform="translate(0 0)" fill="#013b41"/>
</svg>
