<svg xmlns="http://www.w3.org/2000/svg" xmlns:xlink="http://www.w3.org/1999/xlink" width="51.147" height="50.727" viewBox="0 0 51.147 50.727">
  <defs>
    <clipPath id="clip-path">
      <rect id="Rectangle_3938" data-name="Rectangle 3938" width="51.147" height="50.727" fill="#038d7d"/>
    </clipPath>
  </defs>
  <g id="Group_7486" data-name="Group 7486" clip-path="url(#clip-path)">
    <path id="Path_7122" data-name="Path 7122" d="M12.169,46.086l-2.92-1.341a7.4,7.4,0,1,1,8.118.221l-2.553,1.12h5.731c1.915,0,4.875,2.578,5.7,4.287a8.6,8.6,0,0,1,.332,1.578c.081.079,1.365-.033,1.838.074,3.132.7-.015,4.861-.084,6.584-.034.854,1.254,1.7,1.448,2.921a4.525,4.525,0,0,1-2.313,4.994,11.585,11.585,0,0,1-2.039.46c-.395.323-1.051,5.369-2.3,5.784L3.642,72.68c-1.2-.706-.218-5.559-.644-7-.128-.429-1.614-1.778-2.052-2.65C-.268,60.615-.3,52.876.785,50.425c.766-1.724,3.748-4.338,5.653-4.338Zm5.84-7.434a4.505,4.505,0,1,0-4.505,4.5,4.5,4.5,0,0,0,4.505-4.5m5.622,13.31c-.3-1.564-2.234-2.71-3.7-2.912a81.878,81.878,0,0,0-12.613-.027,4.846,4.846,0,0,0-4.268,3.961c-.249,2.076-.3,7.783.931,9.366,1.935,2.492,4.687,1.456,7.42,1.677l1.061-2.956H7.026c-1.354,0-1.2-6.672-.966-7.723.483-2.151,2.876-.993,2.876-.357v5.142H13.2c.663,0,1.463-6.17,3.233-6.17ZM26.277,54.9H17.9L12.757,70.18h8.376a14.293,14.293,0,0,0,1.325-3.228c-.046-.04-.668.054-1.032-.291-.633-.6-.636-6.955-.244-7.873.533-1.25,3.531-.283,4.172-.7a13.594,13.594,0,0,0,.923-3.191m-2.353,9.11c4.119.734,4.042-3.6,0-2.941ZM10.406,66.947H6v3.234c3.144.35,3.94-.106,4.41-3.234" transform="translate(0 -22.04)" fill="#038d7d"/>
    <path id="Path_7123" data-name="Path 7123" d="M86.706,21.108c-2.812.419-5.738-1-6.146-3.992A80.945,80.945,0,0,1,80.6,3.989,4.55,4.55,0,0,1,83.688.314C90.022.752,97.735-.5,103.907.24a4.306,4.306,0,0,1,3.641,3.706c.268,1.966.321,12.308-.111,13.94-1.4,5.3-9.174,2.268-12.588,3.282-1.118.332-4.246,4.728-5.681,5.483-.729.384-2.462.457-2.462-.4Zm2.942.588c1.2-.694,1.978-2.173,3.083-2.938,1.9-1.317,7.7-.23,10.3-.572a1.664,1.664,0,0,0,1.617-1.616,79.585,79.585,0,0,0,0-11.488,2.363,2.363,0,0,0-.6-1.752c-2.494.018-19.352-.642-20.213.22s-.146,11.6-.3,13.531c.982,2.113,3.822.429,5.393,1.366,1.078.643.654,2.2.72,3.25" transform="translate(-56.609 0)" fill="#038d7d"/>
    <path id="Path_7124" data-name="Path 7124" d="M117.453,25.916a1.587,1.587,0,0,1,1.42,2.285,64.705,64.705,0,0,1-5.228,5.082c-1.216.494-4.613-2.866-4.106-4.106,1.084-2.655,3.219.563,3.714.476.672-.117,3.071-3.633,4.2-3.737" transform="translate(-77.17 -18.262)" fill="#038d7d"/>
  </g>
</svg>
