<svg xmlns="http://www.w3.org/2000/svg" width="13.859" height="13.714" viewBox="0 0 13.859 13.714">
  <path id="Icon_akar-history" data-name="Icon akar-history" d="M5.358,13.353a6.048,6.048,0,0,0,2.654,2.7,5.9,5.9,0,0,0,3.708.564,5.962,5.962,0,0,0,3.313-1.79,6.185,6.185,0,0,0,.911-7.191,6.035,6.035,0,0,0-2.758-2.586,5.9,5.9,0,0,0-3.728-.412A5.6,5.6,0,0,0,6.326,6.5,5.21,5.21,0,0,0,5.5,7.709m2.051.18L5.1,8.378,4.5,5.856m6.1,2.711v2.711l2.034,1.356" transform="translate(-3.596 -3.743)" fill="none" stroke="#fff" stroke-linecap="round" stroke-linejoin="round" stroke-width="1.5"/>
</svg>
