<svg xmlns="http://www.w3.org/2000/svg" width="32.21" height="26.717" viewBox="0 0 32.21 26.717">
  <g id="Icon_feather-camera" data-name="Icon feather-camera" transform="translate(1 1)">
    <path id="Path_7114" data-name="Path 7114" d="M31.71,26.471a2.746,2.746,0,0,1-2.746,2.746H4.246A2.746,2.746,0,0,1,1.5,26.471V11.366A2.746,2.746,0,0,1,4.246,8.62H9.739L12.485,4.5h8.239l2.746,4.12h5.493a2.746,2.746,0,0,1,2.746,2.746Z" transform="translate(-1.5 -4.5)" fill="none" stroke="#038d7d" stroke-linecap="round" stroke-linejoin="round" stroke-width="2"/>
    <path id="Path_7115" data-name="Path 7115" d="M22.985,18.993A5.493,5.493,0,1,1,17.493,13.5,5.493,5.493,0,0,1,22.985,18.993Z" transform="translate(-2.388 -5.261)" fill="none" stroke="#038d7d" stroke-linecap="round" stroke-linejoin="round" stroke-width="2"/>
  </g>
</svg>
