<svg xmlns="http://www.w3.org/2000/svg" width="49.396" height="49.735" viewBox="0 0 49.396 49.735">
  <path id="Icon_core-color-border" data-name="Icon core-color-border" d="M14.236,33.742a1.8,1.8,0,0,0,.338-.032l9.248-2.19L43.395,11.947A6.475,6.475,0,1,0,34.237,2.79L14.664,22.363l-2.175,9.178-.015.069a1.794,1.794,0,0,0,1.761,2.132Zm3.418-9.711L36.567,5.118a3.182,3.182,0,0,1,4.5,4.5L22.154,28.531l-5.9,1.4Zm30.4,14.249H3.595a2.473,2.473,0,0,0-2.47,2.47v7.409a2.473,2.473,0,0,0,2.47,2.47H48.051a2.473,2.473,0,0,0,2.47-2.47V40.749a2.473,2.473,0,0,0-2.47-2.47Zm-.823,9.056H4.418V41.573h42.81Z" transform="translate(-1.125 -0.893)" fill="#1c7e68"/>
</svg>
