<svg xmlns="http://www.w3.org/2000/svg" width="23.766" height="23.76" viewBox="0 0 23.766 23.76">
  <g id="Icon_ion-ios-pricetags" data-name="Icon ion-ios-pricetags" transform="translate(-2.25 -2.25)">
    <path id="Path_36396" data-name="Path 36396" d="M21.947,2.25h-6.27a.735.735,0,0,0-.52.217L2.68,14.992a1.473,1.473,0,0,0,0,2.079L8.595,23.04a1.579,1.579,0,0,0,2.3.111L23.2,10.828a.735.735,0,0,0,.217-.52V3.719A1.469,1.469,0,0,0,21.947,2.25Zm-2.435,5.7A1.633,1.633,0,1,1,20.96,6.5,1.632,1.632,0,0,1,19.512,7.953Z" fill="#aaa"/>
    <path id="Path_36397" data-name="Path 36397" d="M27.517,5.646v6.032a.735.735,0,0,1-.217.52l-13.75,13.75.467.467a1.473,1.473,0,0,0,2.079,0l12.477-12.53a.735.735,0,0,0,.217-.52V7.1a1.47,1.47,0,0,0-1.273-1.454Z" transform="translate(-2.774 -0.834)" fill="#aaa"/>
  </g>
</svg>
