<svg xmlns="http://www.w3.org/2000/svg" width="21.448" height="21.407" viewBox="0 0 21.448 21.407">
  <path id="Icon_akar-arrow-back-thick-fill" data-name="Icon akar-arrow-back-thick-fill" d="M14.189,2.473a.973.973,0,0,1,1.742-.6l6.811,8.757a.973.973,0,0,1,0,1.195l-6.811,8.757a.973.973,0,0,1-1.742-.6V16.1c-5.234.109-7.748,1.1-9.011,2.182a5.262,5.262,0,0,0-1.649,3.5l-.059.326a.973.973,0,0,1-1.928-.119A17.742,17.742,0,0,1,3.514,12.2C5.347,9.058,8.649,6.639,14.189,6.386Z" transform="translate(-1.499 -1.499)" fill="#fff"/>
</svg>
