<svg id="Taraf_for_3d" data-name="Taraf for 3d" xmlns="http://www.w3.org/2000/svg" width="30.44" height="25.002" viewBox="0 0 30.44 25.002">
  <g id="Group_6116" data-name="Group 6116" transform="translate(2.673 21.684)">
    <path id="Path_6282" data-name="Path 6282" d="M70.069,174.773a.181.181,0,0,0-.053-.121,1.335,1.335,0,0,0-.123-.121c-.034-.03-.068-.062-.1-.1a.792.792,0,0,1-.1-.11.655.655,0,0,1-.07-.125.378.378,0,0,1-.028-.149.518.518,0,0,1,.055-.244.482.482,0,0,1,.144-.168.6.6,0,0,1,.2-.1.719.719,0,0,1,.208-.032.953.953,0,0,1,.136.011.868.868,0,0,1,.121.025.656.656,0,0,1,.121.036l-.081.342a.713.713,0,0,0-.153-.053.808.808,0,0,0-.174-.019.3.3,0,0,0-.161.042.133.133,0,0,0-.064.117.2.2,0,0,0,.059.132,1.677,1.677,0,0,0,.138.136q.051.045.1.1a1.037,1.037,0,0,1,.091.1.438.438,0,0,1,.064.115.327.327,0,0,1,.023.13.564.564,0,0,1-.059.244.711.711,0,0,1-.187.236,1.027,1.027,0,0,1-.321.178,1.37,1.37,0,0,1-.463.07,1.084,1.084,0,0,1-.418-.072.88.88,0,0,1-.287-.185.681.681,0,0,1-.163-.255.84.84,0,0,1-.053-.282.786.786,0,0,1,.057-.3,1.417,1.417,0,0,1,.147-.265l.285.166a.73.73,0,0,0-.1.2.587.587,0,0,0-.032.178.433.433,0,0,0,.038.183.387.387,0,0,0,.115.142.573.573,0,0,0,.187.1.856.856,0,0,0,.257.034,1.073,1.073,0,0,0,.259-.03.911.911,0,0,0,.2-.074.42.42,0,0,0,.132-.1.168.168,0,0,0,.047-.11ZM69.05,175.8a.167.167,0,0,1,.051-.123.19.19,0,0,1,.259,0,.177.177,0,0,1,0,.248.19.19,0,0,1-.259,0A.168.168,0,0,1,69.05,175.8Zm.465,0a.167.167,0,0,1,.051-.123.19.19,0,0,1,.259,0,.177.177,0,0,1,0,.248.19.19,0,0,1-.259,0A.168.168,0,0,1,69.515,175.8Z" transform="translate(-68.47 -172.654)" fill="#002d33"/>
    <path id="Path_6283" data-name="Path 6283" d="M79.679,175.121a.886.886,0,0,1-.036.253.553.553,0,0,1-.108.2.512.512,0,0,1-.178.136.551.551,0,0,1-.244.049,1.138,1.138,0,0,1-.191-.015.228.228,0,0,1-.04-.006.153.153,0,0,1-.04-.008l.038-.342.085.017c.023,0,.049.008.074.011s.051,0,.072,0a.178.178,0,0,0,.176-.085.536.536,0,0,0,.045-.246V173.97h.342v1.149Z" transform="translate(-76.638 -173.017)" fill="#002d33"/>
    <path id="Path_6284" data-name="Path 6284" d="M91.173,169.48v1.8H90.094a1.511,1.511,0,0,1-.21-.011,1.018,1.018,0,0,0,.257-.335.735.735,0,0,0,.068-.282.24.24,0,0,0-.036-.119.387.387,0,0,0-.108-.113.529.529,0,0,0-.185-.083.961.961,0,0,0-.263-.032.9.9,0,0,0-.2.021,1.012,1.012,0,0,0-.193.057,1.147,1.147,0,0,0-.178.083.931.931,0,0,0-.151.1l.011.242a.532.532,0,0,0,.047.091,1.354,1.354,0,0,0,.076.117c.032.04.064.083.1.125a1.417,1.417,0,0,0,.108.115c-.023,0-.053.011-.087.015a.944.944,0,0,1-.117.006H87.964v-.372a.72.72,0,0,0-.038-.24.539.539,0,0,0-.113-.185.48.48,0,0,0-.174-.119.6.6,0,0,0-.229-.042.678.678,0,0,0-.274.055.7.7,0,0,0-.212.146.654.654,0,0,0-.136.208.627.627,0,0,0-.047.24.566.566,0,0,0,.028.2.879.879,0,0,0,.049.11H85.274v-1.8H84.93v2.153h4.1a1.267,1.267,0,0,0,.263-.03.9.9,0,0,0,.248-.1,1.008,1.008,0,0,0,.206.085,1.179,1.179,0,0,0,.338.042h1.425V169.48h-.34Zm-3.554,1.8h-.261a.313.313,0,0,1-.138-.047.326.326,0,0,1-.093-.093.3.3,0,0,1-.042-.17.352.352,0,0,1,.023-.129.293.293,0,0,1,.066-.1.281.281,0,0,1,.093-.064.276.276,0,0,1,.108-.023.287.287,0,0,1,.113.021.251.251,0,0,1,.074.055.194.194,0,0,1,.045.079.281.281,0,0,1,.013.083Zm2.238-.465a.7.7,0,0,1-.066.113.814.814,0,0,1-.1.11.662.662,0,0,1-.125.093.87.87,0,0,1-.113-.1c-.036-.038-.07-.079-.1-.117s-.057-.079-.081-.113a.71.71,0,0,1-.045-.079.631.631,0,0,1,.18-.068.945.945,0,0,1,.21-.025.726.726,0,0,1,.1.006.511.511,0,0,1,.085.013.221.221,0,0,1,.064.025.051.051,0,0,1,.023.04A.26.26,0,0,1,89.856,170.82Z" transform="translate(-81.435 -169.48)" fill="#002d33"/>
    <path id="Path_6285" data-name="Path 6285" d="M94.86,171a.19.19,0,0,0-.259,0,.174.174,0,0,0,0,.246.19.19,0,0,0,.259,0,.174.174,0,0,0,0-.246Zm.469,0a.181.181,0,0,0-.13-.051.178.178,0,0,0-.13.051.174.174,0,0,0,0,.246.174.174,0,0,0,.13.051.178.178,0,0,0,.13-.051.174.174,0,0,0,0-.246Z" transform="translate(-89.012 -170.638)" fill="#002d33"/>
    <path id="Path_6286" data-name="Path 6286" d="M118.25,169.48h.34v2.153h-.34Z" transform="translate(-107.68 -169.48)" fill="#002d33"/>
    <path id="Path_6287" data-name="Path 6287" d="M129.3,171a.19.19,0,0,0-.259,0,.174.174,0,0,0,0,.246.19.19,0,0,0,.259,0,.174.174,0,0,0,0-.246Zm.469,0a.181.181,0,0,0-.13-.051.178.178,0,0,0-.13.051.174.174,0,0,0,0,.246.174.174,0,0,0,.13.051.178.178,0,0,0,.13-.051.174.174,0,0,0,0-.246Z" transform="translate(-116.14 -170.638)" fill="#002d33"/>
    <path id="Path_6288" data-name="Path 6288" d="M138.515,180.631a.19.19,0,0,0-.259,0,.162.162,0,0,0-.051.121.173.173,0,0,0,.051.127.2.2,0,0,0,.259,0,.173.173,0,0,0,.051-.127A.162.162,0,0,0,138.515,180.631Zm-.465,0a.19.19,0,0,0-.259,0,.162.162,0,0,0-.051.121.173.173,0,0,0,.051.127.2.2,0,0,0,.259,0,.173.173,0,0,0,.051-.127A.162.162,0,0,0,138.05,180.631Z" transform="translate(-123.032 -178.223)" fill="#002d33"/>
    <path id="Path_6289" data-name="Path 6289" d="M170.179,171a.19.19,0,0,0-.259,0,.174.174,0,0,0,0,.246.19.19,0,0,0,.259,0,.174.174,0,0,0,0-.246Zm-.469,0a.19.19,0,0,0-.259,0,.174.174,0,0,0,0,.246.19.19,0,0,0,.259,0,.174.174,0,0,0,0-.246Z" transform="translate(-147.969 -170.638)" fill="#002d33"/>
    <path id="Path_6290" data-name="Path 6290" d="M151.989,169.48v1.8h-.44a.241.241,0,0,1-.208-.079.331.331,0,0,1-.057-.2V169.48h-.344v1.648a.249.249,0,0,1-.023.115.092.092,0,0,1-.089.042h-1.35a.239.239,0,0,1-.206-.079.332.332,0,0,1-.057-.2v-.571h-.344v.692a.251.251,0,0,1-.021.115.092.092,0,0,1-.089.042h-1.372a.242.242,0,0,1-.206-.079.346.346,0,0,1-.055-.2v-.571h-.34v.692a.249.249,0,0,1-.023.115.1.1,0,0,1-.093.042H146.6a.244.244,0,0,1-.208-.079.332.332,0,0,1-.057-.2V170.6h-.346v.529a.251.251,0,0,1-.021.115.09.09,0,0,1-.089.042h-.055a.238.238,0,0,1-.21-.083.327.327,0,0,1-.057-.2v-.291h-.335v.42a.2.2,0,0,1-.025.113.1.1,0,0,1-.093.036h-.809v-.359a.724.724,0,0,0-.038-.242.52.52,0,0,0-.115-.189.489.489,0,0,0-.18-.123.63.63,0,0,0-.242-.045.593.593,0,0,0-.257.055.65.65,0,0,0-.2.153.683.683,0,0,0-.13.223.767.767,0,0,0-.047.27.66.66,0,0,0,.036.221.531.531,0,0,0,.115.193.594.594,0,0,0,.208.138.844.844,0,0,0,.314.053h.2a.326.326,0,0,1-.038.163.252.252,0,0,1-.093.1.37.37,0,0,1-.134.047.932.932,0,0,1-.159.013c-.038,0-.083,0-.136-.006s-.106-.011-.163-.017l-.025.335a1.329,1.329,0,0,0,.166.019c.051,0,.1,0,.144,0a1.135,1.135,0,0,0,.3-.036.667.667,0,0,0,.24-.117.529.529,0,0,0,.163-.2.741.741,0,0,0,.068-.3h.807a.534.534,0,0,0,.229-.049.349.349,0,0,0,.161-.146.391.391,0,0,0,.119.134.337.337,0,0,0,.208.062h.079a.477.477,0,0,0,.21-.049.349.349,0,0,0,.157-.146.383.383,0,0,0,.117.134.331.331,0,0,0,.21.062h.083a.5.5,0,0,0,.227-.051.345.345,0,0,0,.153-.149.422.422,0,0,0,.123.138.348.348,0,0,0,.214.062h1.387a.4.4,0,0,0,.219-.057.44.44,0,0,0,.142-.144.485.485,0,0,0,.121.138.329.329,0,0,0,.212.064h1.374a.458.458,0,0,0,.221-.051.349.349,0,0,0,.144-.149.458.458,0,0,0,.121.138.337.337,0,0,0,.208.062h.792V169.48h-.34Zm-8.039,1.8h-.21a.45.45,0,0,1-.121-.017.274.274,0,0,1-.1-.055.3.3,0,0,1-.072-.1.354.354,0,0,1-.028-.142.313.313,0,0,1,.025-.13.284.284,0,0,1,.062-.1.314.314,0,0,1,.089-.064.256.256,0,0,1,.1-.023.224.224,0,0,1,.189.093.435.435,0,0,1,.066.261Z" transform="translate(-127.238 -169.48)" fill="#002d33"/>
    <path id="Path_6291" data-name="Path 6291" d="M127.676,173.578v.849H126.4v-.372a.7.7,0,0,0-.038-.236.541.541,0,0,0-.11-.185.475.475,0,0,0-.176-.121.577.577,0,0,0-.231-.045.669.669,0,0,0-.263.051.639.639,0,0,0-.212.14.672.672,0,0,0-.142.208.59.59,0,0,0-.053.251.764.764,0,0,0,.038.244.557.557,0,0,0,.127.212.608.608,0,0,0,.231.144,1.015,1.015,0,0,0,.357.055h.136a.653.653,0,0,1-.04.189.491.491,0,0,1-.106.166.53.53,0,0,1-.187.117.776.776,0,0,1-.28.045,1,1,0,0,1-.293-.038.546.546,0,0,1-.2-.106.419.419,0,0,1-.115-.159.519.519,0,0,1-.036-.191.484.484,0,0,1,.021-.149c.013-.045.028-.087.042-.125a1.313,1.313,0,0,1,.064-.123l-.28-.151s-.011.015-.03.045a.8.8,0,0,0-.064.134,1.884,1.884,0,0,0-.066.2,1.039,1.039,0,0,0-.03.251.707.707,0,0,0,.053.268.671.671,0,0,0,.168.246.9.9,0,0,0,.3.178,1.24,1.24,0,0,0,.444.07,1.087,1.087,0,0,0,.42-.074.9.9,0,0,0,.3-.2.839.839,0,0,0,.18-.276.99.99,0,0,0,.072-.321h1.614v-1.2Zm-1.618.849H125.9a.543.543,0,0,1-.147-.019.352.352,0,0,1-.121-.055.3.3,0,0,1-.083-.1.3.3,0,0,1-.032-.14.306.306,0,0,1,.093-.231.34.34,0,0,1,.093-.062.305.305,0,0,1,.106-.021.228.228,0,0,1,.18.072.231.231,0,0,1,.066.166Z" transform="translate(-112.579 -172.623)" fill="#002d33"/>
  </g>
  <g id="Group_6118" data-name="Group 6118" transform="translate(0 11.636)">
    <path id="Path_6292" data-name="Path 6292" d="M62.093,131.6H59.434v6.168h-.922V131.6H55.88l.008-.212h6.2Z" transform="translate(-55.88 -129.43)" fill="#0a8f7c"/>
    <g id="Group_6117" data-name="Group 6117" transform="translate(20.223)">
      <path id="Path_6293" data-name="Path 6293" d="M160.124,130.5h-1l-.48-1.17-.478-1.17-.081-.212L156.06,122.9q.309-.373.62-.743Z" transform="translate(-155.011 -122.16)" fill="#0a8f7c"/>
      <path id="Path_6294" data-name="Path 6294" d="M151.12,144.316h.274l1.741-4.334-.106-.282Z" transform="translate(-151.12 -135.976)" fill="#0a8f7c"/>
    </g>
    <path id="Path_6295" data-name="Path 6295" d="M86.6,144.316h.276l1.741-4.334-.106-.282Z" transform="translate(-80.077 -135.976)" fill="#0a8f7c"/>
    <path id="Path_6296" data-name="Path 6296" d="M182.49,137.763V131.38h3.232v.212h-2.31v2.7h1.355v.221h-1.355v3.244h-.922Z" transform="translate(-155.606 -129.422)" fill="#0a8f7c"/>
    <path id="Path_6297" data-name="Path 6297" d="M122.8,131.655h-.333v6.115h-.9V131.39h1.151C122.736,131.481,122.766,131.568,122.8,131.655Z" transform="translate(-107.614 -129.43)" fill="#0a8f7c"/>
    <path id="Path_6298" data-name="Path 6298" d="M131.4,144.3h-.728c-.066-.278-.93-2.8-2.518-3.013v-.229h.251a2.1,2.1,0,0,0,.637-.142,1.188,1.188,0,0,0,.709-.7,1.483,1.483,0,0,0,.093-.467,2.9,2.9,0,0,0,.437.036,1.8,1.8,0,0,0,.575-.1,1.4,1.4,0,0,1-.442.873,2.385,2.385,0,0,1-1.338.6,2.945,2.945,0,0,1,1.268,1.083A10.585,10.585,0,0,1,131.4,144.3Z" transform="translate(-112.805 -135.96)" fill="#0a8f7c"/>
    <path id="Path_6299" data-name="Path 6299" d="M95.486,132.548h-1l-.48-1.17-.478-1.17L93.448,130l-2.058-5.13c.289-.025.582-.062.881-.106Z" transform="translate(-83.85 -124.208)" fill="#0a8f7c"/>
  </g>
  <path id="Path_6300" data-name="Path 6300" d="M86.318,70.494l-.815-.588a.31.31,0,0,1-.066-.435l.883-1.2-1.3-.915-1.106,1.495.82.59a.31.31,0,0,1,.068.435l-.888,1.2,1.244.875v2.641a2.247,2.247,0,0,0-.389-.359,2.652,2.652,0,0,0-1.595-.491q-2.121,0-5.022,3.153-1.408,1.6-2.816,3.189a5.819,5.819,0,0,1-1.869,1.421,1.632,1.632,0,0,1-.573.123,2.3,2.3,0,0,1-.278-.017,1.362,1.362,0,0,1-.8-.355,1.259,1.259,0,0,1-.225-.3,2.449,2.449,0,0,1-.257-1.212,6.249,6.249,0,0,1,.643-2.431A8.07,8.07,0,0,0,74.633,75.8a3.652,3.652,0,0,0,.824-2.51,4.549,4.549,0,0,0-1.119-2.934,2.84,2.84,0,0,0-2.07-1.306q-.729,0-1.408,1a3.178,3.178,0,0,0-.629,1.747,1.443,1.443,0,0,0,1.019,1.595,12.649,12.649,0,0,0,1.813.068,3.242,3.242,0,0,1,1.308.238c.327.134.491.282.491.44q0,.662-4.614,2.172a27.546,27.546,0,0,1-8.277,1.629,7.711,7.711,0,0,1-3.478-.713,2.969,2.969,0,0,1-1.815-2.765,3.987,3.987,0,0,1,.161-1.051A5.361,5.361,0,0,0,57,72.76a.138.138,0,0,0-.036-.1l1.48-.822-1.038-1.771-1.527.847,1,1.711c-.123,0-.3.352-.524,1.068a7.225,7.225,0,0,0-.374,2.17,3.214,3.214,0,0,0,1.2,2.595,7.129,7.129,0,0,0,4.665,1.274q.758,0,1.567-.079c.289-.025.582-.062.881-.106a29.189,29.189,0,0,0,5.542-1.41c.592-.21,1.13-.412,1.616-.607a6.6,6.6,0,0,0-.582,2.624,3.143,3.143,0,0,0,.1.8c.025.091.055.178.087.265a2.713,2.713,0,0,0,.49.817,2.2,2.2,0,0,0,1.361.745,2.893,2.893,0,0,0,.437.036,1.8,1.8,0,0,0,.575-.1,5.407,5.407,0,0,0,2.038-1.559c.395-.474.788-.947,1.185-1.418q.309-.373.62-.743.471-.567.943-1.13,2.239-2.478,4.24-2.478a3.208,3.208,0,0,1,2.119,1.155c.034,0,.091-.2.17-.586a4.733,4.733,0,0,0,.119-.873.644.644,0,0,0-.062-.265V71.87l1.017-1.376ZM71.945,71.726q-.694-.083-.694-.3c0-.089.1-.193.312-.314a1.173,1.173,0,0,1,.586-.185,1.417,1.417,0,0,1,1.1.665A3.125,3.125,0,0,1,71.945,71.726Z" transform="translate(-55.88 -67.36)" fill="#002d33"/>
</svg>
