<svg xmlns="http://www.w3.org/2000/svg" width="26.788" height="13.394" viewBox="0 0 26.788 13.394">
  <path id="Icon_material-round-groups" data-name="Icon material-round-groups" d="M13.394,16.534a11.844,11.844,0,0,1,4.733,1,3.331,3.331,0,0,1,1.964,3.047v.692a1.119,1.119,0,0,1-1.116,1.116H7.813A1.119,1.119,0,0,1,6.7,21.278V20.6A3.308,3.308,0,0,1,8.662,17.55,11.653,11.653,0,0,1,13.394,16.534Zm-8.929.279a2.232,2.232,0,1,0-2.232-2.232A2.239,2.239,0,0,0,4.465,16.813Zm1.261,1.228a7.793,7.793,0,0,0-1.261-.112,7.758,7.758,0,0,0-3.1.647A2.244,2.244,0,0,0,0,20.642v.636a1.119,1.119,0,0,0,1.116,1.116H5.023V20.6A5.021,5.021,0,0,1,5.726,18.041Zm16.6-1.228a2.232,2.232,0,1,0-2.232-2.232A2.239,2.239,0,0,0,22.324,16.813Zm4.465,3.828a2.244,2.244,0,0,0-1.362-2.065,7.588,7.588,0,0,0-4.364-.536,5.021,5.021,0,0,1,.7,2.556v1.8h3.907a1.119,1.119,0,0,0,1.116-1.116ZM13.394,9a3.349,3.349,0,1,1-3.349,3.349A3.344,3.344,0,0,1,13.394,9Z" transform="translate(0 -9)" fill="#013b41"/>
</svg>
