<svg xmlns="http://www.w3.org/2000/svg" width="69.605" height="65.418" viewBox="0 0 69.605 65.418">
  <path id="Icon_ion-warning" data-name="Icon ion-warning" d="M72.325,61.932,43.024,7.517a5.5,5.5,0,0,0-9.688,0L4.036,61.932a5.5,5.5,0,0,0,4.836,8.11H67.48a5.5,5.5,0,0,0,4.845-8.11Zm-34.145-.315a3.439,3.439,0,1,1,3.439-3.439,3.439,3.439,0,0,1-3.439,3.439Zm3.734-34.583-.987,20.975a2.751,2.751,0,0,1-5.5,0l-.987-20.967a3.736,3.736,0,0,1,3.7-3.9h.036a3.738,3.738,0,0,1,3.736,3.9Z" transform="translate(-3.378 -4.623)" fill="#aaa"/>
</svg>
